<svg width="122" height="103" viewBox="0 0 122 103" fill="none" xmlns="http://www.w3.org/2000/svg">
<path d="M75.2256 18.5303L75.2255 18.5303C64.1827 15.1465 52.9207 12.5411 41.5471 10.7389L75.2256 18.5303ZM75.2256 18.5303C86.4479 21.9658 97.2171 26.1276 107.495 30.9271C114.27 34.0912 117.456 40.9927 115.612 47.0174L108.677 69.6719C106.831 75.7008 100.33 79.6275 92.9431 78.4609C83.963 77.0388 75.0502 75.1146 66.2579 72.6997C65.1834 72.3964 64.0435 72.4606 63.0679 72.8899L63.0654 72.891M75.2256 18.5303L63.0654 72.891M63.0654 72.891L40.255 83.1386C39.6484 83.4106 38.9454 83.5114 38.235 83.422C37.5246 83.3326 36.8445 83.0578 36.2819 82.6341L36.0716 82.9134L36.2819 82.6341C35.7193 82.2104 35.3037 81.6603 35.081 81.0582C34.8586 80.457 34.8378 79.8299 35.0144 79.2541L35.0145 79.2539M63.0654 72.891L35.0145 79.2539M35.0145 79.2539L39.6527 64.1025L39.7468 63.7952M35.0145 79.2539L39.7468 63.7952M39.7468 63.7952L39.4485 63.6756M39.7468 63.7952L39.4485 63.6756M39.4485 63.6756C35.2444 61.9901 31.091 60.1897 26.9946 58.2772M39.4485 63.6756L26.9946 58.2772M26.9946 58.2772C20.2215 55.1043 17.034 48.2069 18.8797 42.1779L25.8135 19.5278C27.659 13.499 34.1597 9.57228 41.5469 10.7389L26.9946 58.2772Z" stroke="#FF9D01" stroke-width="0.699248"/>
<path fill-rule="evenodd" clip-rule="evenodd" d="M34.8927 6.39558C46.6196 8.36143 58.2468 11.1065 69.6631 14.6044C81.2647 18.156 92.4142 22.4057 103.07 27.2664C110.226 30.5305 113.74 37.4574 111.904 43.4572L105.207 65.332C103.369 71.3361 96.5818 75.1001 88.8241 73.8034C79.5646 72.2521 70.3649 70.2135 61.2801 67.6999C60.2461 67.4061 59.1625 67.4466 58.2492 67.813L35.0226 77.3404C34.3418 77.6191 33.5554 77.7099 32.763 77.6014C31.9706 77.4929 31.2076 77.19 30.5707 76.7309C29.9338 76.2718 29.4515 75.6771 29.1847 75.0221C28.9179 74.3671 28.8787 73.6812 29.072 73.051L33.5506 58.4211C29.1967 56.7029 24.8928 54.8739 20.6453 52.9368C13.4924 49.6643 9.97658 42.7416 11.8146 36.7375L18.5097 14.867C20.3477 8.86293 27.135 5.09894 34.8927 6.39558Z" fill="#307B74"/>
</svg>
