<svg width="34" height="34" viewBox="0 0 34 34" fill="none" xmlns="http://www.w3.org/2000/svg">
<g id="ant-design:instagram-filled">
<path id="Vector" d="M16.8837 12.4621C14.5128 12.4621 12.5779 14.397 12.5779 16.7679C12.5779 19.1389 14.5128 21.0737 16.8837 21.0737C19.2547 21.0737 21.1895 19.1389 21.1895 16.7679C21.1895 14.397 19.2547 12.4621 16.8837 12.4621ZM29.7979 16.7679C29.7979 14.9849 29.8141 13.218 29.714 11.4381C29.6138 9.37082 29.1422 7.53608 27.6305 6.02436C26.1155 4.50941 24.284 4.04104 22.2167 3.9409C20.4337 3.84077 18.6668 3.85692 16.8869 3.85692C15.1039 3.85692 13.337 3.84077 11.5572 3.9409C9.48984 4.04104 7.6551 4.51264 6.14338 6.02436C4.62843 7.53931 4.16006 9.37082 4.05992 11.4381C3.95979 13.2212 3.97594 14.9881 3.97594 16.7679C3.97594 18.5477 3.95979 20.3179 4.05992 22.0977C4.16006 24.165 4.63166 25.9998 6.14338 27.5115C7.65833 29.0264 9.48984 29.4948 11.5572 29.5949C13.3402 29.6951 15.1071 29.6789 16.8869 29.6789C18.67 29.6789 20.4369 29.6951 22.2167 29.5949C24.284 29.4948 26.1188 29.0232 27.6305 27.5115C29.1454 25.9965 29.6138 24.165 29.714 22.0977C29.8173 20.3179 29.7979 18.551 29.7979 16.7679ZM16.8837 23.393C13.2175 23.393 10.2586 20.4342 10.2586 16.7679C10.2586 13.1017 13.2175 10.1428 16.8837 10.1428C20.55 10.1428 23.5088 13.1017 23.5088 16.7679C23.5088 20.4342 20.55 23.393 16.8837 23.393ZM23.7801 11.4188C22.9241 11.4188 22.2329 10.7275 22.2329 9.8715C22.2329 9.0155 22.9241 8.32425 23.7801 8.32425C24.6361 8.32425 25.3274 9.0155 25.3274 9.8715C25.3276 10.0748 25.2878 10.2761 25.2101 10.4639C25.1325 10.6517 25.0185 10.8224 24.8748 10.9661C24.731 11.1099 24.5604 11.2238 24.3725 11.3015C24.1847 11.3792 23.9834 11.419 23.7801 11.4188Z" fill="white"/>
</g>
</svg>
