<svg width="170" height="46" viewBox="0 0 170 46" fill="none" xmlns="http://www.w3.org/2000/svg">
<path d="M26.7693 18.2338H38.2629V22H26.7693V28.039H38.8148V32H21.8992V8.81818H38.8148V12.6818H26.7693V18.2338ZM48.4265 14.4351C50.8291 14.4351 52.6148 15.3442 53.5888 16.8377H53.7187V8.4935H58.2641V32H53.9135V29.7597H53.7836C52.7446 31.5779 50.7641 32.4221 48.4914 32.4221C44.1407 32.4221 40.9265 28.9481 40.9265 23.4286C40.9265 17.9091 44.1407 14.4351 48.4265 14.4351ZM49.7901 28.9481C52.2901 28.9481 53.9459 27.0325 53.9459 23.4286C53.9459 19.8247 52.2901 17.9091 49.7901 17.9091C47.2252 17.9091 45.5693 19.8247 45.5693 23.4286C45.5693 27.0325 47.2252 28.9481 49.7901 28.9481ZM73.0254 29.7273H72.8956C71.7267 31.3831 69.941 32.4221 67.4735 32.4221C64.1943 32.4221 61.4345 30.5065 61.4345 26.1558V14.8247H65.98V24.987C65.98 27.7468 67.1163 28.7532 69.1943 28.7532C71.0774 28.7532 72.8306 27.2597 72.8306 24.1753V14.8247H77.3761V32H73.0254V29.7273Z" fill="#FFB201"/>
<path d="M80.8138 32V8.81818H85.684V27.9091H97.8918V32H80.8138ZM111.705 26.5455L116.315 26.9026C115.666 29.3377 113.361 32.4221 107.938 32.4221C102.646 32.4221 99.3021 28.9156 99.3021 23.461C99.3021 17.9416 102.549 14.4351 107.906 14.4351C113.296 14.4351 116.899 17.974 116.477 24.4026H103.945C104.01 27.2273 105.536 29.2078 107.938 29.2078C110.406 29.2078 111.38 27.6494 111.705 26.5455ZM107.906 17.5844C105.503 17.5844 104.172 19.3377 104.01 21.4481H111.835C111.672 19.3377 110.341 17.5844 107.906 17.5844ZM134.115 28.7532C134.31 28.7532 134.602 28.7208 134.797 28.6234V32C134.407 32.1299 133.595 32.2273 132.719 32.2273C130.771 32.2273 129.569 31.6753 129.082 30.2468H128.953C127.849 31.7078 125.738 32.4221 123.66 32.4221C120.543 32.4221 117.881 30.5065 117.881 27.3247C117.881 23.6234 120.349 22.2597 124.764 21.7078C127.979 21.3182 128.823 20.7987 128.823 19.7922C128.823 18.4935 127.946 17.6818 126.03 17.6818C124.537 17.6818 123.206 18.4935 122.719 20.2143L118.498 19.5974C119.245 16.3506 122.167 14.4351 126.128 14.4351C131.193 14.4351 133.368 16.7078 133.368 19.987V27.7468C133.368 28.5909 133.66 28.7532 134.115 28.7532ZM128.823 25.3442V23.5584C128.303 24.013 126.875 24.2727 125.316 24.5C123.758 24.7597 122.524 25.539 122.524 27.0974C122.524 28.461 123.401 29.2727 124.829 29.2727C126.582 29.2727 128.823 28.1364 128.823 25.3442ZM140.903 14.8247V17.4545H141.033C141.942 15.7013 143.663 14.4351 146.195 14.4351C146.617 14.4351 147.072 14.4675 147.397 14.5649V18.8182C146.975 18.7532 146.26 18.6883 145.611 18.6883C143.014 18.6883 141.098 19.8247 141.098 23.3312V32H136.552V14.8247H140.903ZM153.65 17.0974H153.78C154.949 15.4416 156.735 14.4351 159.202 14.4351C162.482 14.4351 165.241 16.3506 165.241 20.7013V32H160.696V21.8701C160.696 19.1104 159.56 18.1039 157.482 18.1039C155.598 18.1039 153.845 19.5974 153.845 22.6493V32H149.3V14.8247H153.65V17.0974Z" fill="#323231"/>
<path d="M9.08602 16.2853C7.58943 13.9768 6.44776 13.7486 4.26971 15.5001C2.94864 35.2977 23.4413 46.0545 26.2553 45.1922C29.0692 44.33 28.747 42.2739 26.3688 40.5401C23.9906 38.8063 10.2693 33.5001 9.08602 16.2853Z" fill="#307B74"/>
</svg>
