<svg width="34" height="34" viewBox="0 0 34 34" fill="none" xmlns="http://www.w3.org/2000/svg">
<g id="ant-design:twitter-outlined">
<path id="Vector" d="M30.7845 8.44443C29.7961 8.87081 28.7204 9.17768 27.6125 9.29719C28.7628 8.61381 29.6242 7.53416 30.0351 6.26083C28.9557 6.90295 27.7732 7.35322 26.5401 7.59166C26.0247 7.04068 25.4013 6.60174 24.7089 6.3022C24.0164 6.00266 23.2697 5.84893 22.5153 5.8506C19.4628 5.8506 17.0078 8.32491 17.0078 11.3613C17.0078 11.7877 17.0595 12.214 17.1435 12.6243C12.5728 12.3852 8.49633 10.2016 5.78621 6.85841C5.2924 7.70186 5.03362 8.66223 5.03681 9.63959C5.03681 11.5519 6.00909 13.238 7.49174 14.2297C6.61799 14.1953 5.76471 13.9551 5.00128 13.5287V13.5966C5.00128 16.2744 6.89416 18.4935 9.41692 19.0039C8.94325 19.1269 8.45597 19.1898 7.96658 19.1912C7.60803 19.1912 7.26886 19.1557 6.92646 19.1072C7.62418 21.2908 9.65596 22.8768 12.0754 22.9285C10.1825 24.4112 7.81153 25.2833 5.23708 25.2833C4.77517 25.2833 4.34878 25.2672 3.90625 25.2155C6.34826 26.7821 9.24573 27.6866 12.3661 27.6866C22.4959 27.6866 28.0389 19.2946 28.0389 12.0105C28.0389 11.7715 28.0389 11.5325 28.0227 11.2934C29.0951 10.5085 30.0351 9.53623 30.7845 8.44443Z" fill="white"/>
</g>
</svg>
